<?xml version="1.0" encoding="utf-8"?>
<!-- Generator: Adobe Illustrator 23.0.6, SVG Export Plug-In . SVG Version: 6.00 Build 0)  -->
<svg version="1.1" id="Layer_1" xmlns="http://www.w3.org/2000/svg" xmlns:xlink="http://www.w3.org/1999/xlink" x="0px" y="0px"
	 width="261.7px" height="60.2px" viewBox="0 0 261.7 60.2" style="enable-background:new 0 0 261.7 60.2;" xml:space="preserve">
<style type="text/css">
	.st0{fill:#FFFFFF;}
</style>
<path class="st0" d="M5.8,8.7c0,0,0,0.4-0.1,0.8c0,0.2-0.1,0.3-0.2,0.6s-0.1,0.4-0.1,0.7c0,0.3,0,0.6,0,0.9c0,0.3,0,0.6,0,1
	c0,0.3,0,0.7-0.1,1c-0.1,0.4-0.1,0.7-0.1,1.1c0,0.3,0,0.5,0,0.8c0,0.2,0.1,0.5,0.1,0.8c0,0.3,0,0.5-0.1,0.8c0,0.3,0,0.5,0,0.8
	s0,0.5,0.1,0.8c0,0.3,0.1,0.5,0.1,0.8c0,0.3,0,0.5,0,0.8c0,0.3,0,0.5,0,0.8L17.7,21c0.3,0,0.6,0.1,0.8,0.3c0.4,0.3,0.6,0.4,0.7,0.5
	c0.1,0.1,0.1,0.2,0.2,0.4s0.1,0.3,0.2,0.4c0.1,0.1,0.1,0.2,0.2,0.3c0.1,0.1,0.2,0.2,0.2,0.3c0,0.1,0,0.3-0.1,0.5
	c-0.1,0.2-0.2,0.3-0.4,0.4c-0.1,0.1-0.2,0.1-0.4,0.2c-0.1,0.1-0.3,0.1-0.4,0.2c-0.2,0.1-0.3,0.1-0.5,0.2c-0.1,0.1-0.3,0.1-0.4,0.2
	c-0.2,0.1-0.5,0-0.6,0c0.1,0-0.1,0-0.4-0.1c-0.1,0-0.2,0-0.4-0.1c-0.1,0-0.3-0.1-0.4-0.1c-0.2,0-0.3,0-0.5,0s-0.4,0-0.6-0.1
	c-0.2,0-0.4-0.1-0.6-0.1c-0.2-0.1-0.4-0.1-0.6-0.1c-0.3,0-0.5,0-0.8,0c-0.3,0-0.5,0-0.8-0.1c-0.3,0-0.5-0.1-0.8-0.1
	c-0.3-0.1-0.5-0.1-0.7-0.1c-0.2,0-0.5,0-0.7,0c-0.2,0-0.4,0-0.6,0c-0.2,0-0.3,0-0.5,0c-0.1,0-0.2,0-0.3,0c-0.1,0-0.1,0-0.2,0
	c-0.1,0-0.1,0-0.2,0c-0.1,0-0.2,0-0.3,0c-0.1,0-0.2,0-0.4-0.1c-0.2,0-0.3,0-0.4,0c-0.2,0-0.3,0-0.5,0c-0.2,0-0.4,0-0.5-0.1
	c-0.2,0-0.4-0.1-0.5-0.1c0,0.1,0,0.3,0,0.4c0,0.1,0,0.3,0,0.4s0,0.2-0.1,0.3c0,0.1-0.1,0.2-0.1,0.3c0,0.1,0,0.2,0,0.3
	c0,0.1,0,0.2,0,0.2c0,0.1,0,0.2,0,0.2c0,0.1,0,0.1,0,0.2c0,0.6,0.2,1.1,0.6,1.5c0.4,0.4,0.8,0.6,1.2,0.8c0.2,0.1,0.4,0.1,0.7,0.1
	c0.2,0,0.4,0,0.6,0s0.4,0,0.6,0.1c0.1,0,0.3-0.1,0.4-0.1s0.3,0,0.4,0c0.2,0,0.4,0,0.6,0c0.2,0,0.4,0,0.6-0.1c0.2,0,0.5-0.1,0.7-0.1
	c0.3,0,0.5,0,0.8,0.1c0.2,0,0.5,0.1,0.8,0.1c0.2,0,0.4,0,0.6-0.1c0.2-0.1,0.4-0.1,0.6-0.1c0.2,0,0.4,0,0.5,0c0.2,0,0.3,0,0.5,0
	c0.1,0,0.3,0,0.4,0c0.1,0,0.2,0,0.3,0c0.1,0,0.2,0,0.2,0c0.1,0,0.1,0,0.1,0c0,0,0.1,0,0.2-0.1c0,0,0.1-0.1,0.1-0.1s0.1,0,0.2-0.1
	c0.2-0.2,0.4-0.3,0.4-0.3c0,0,0.2,0,0.6,0c0.4,0,0.6,0,0.8,0.1c0.1,0.1,0.3,0.2,0.4,0.3s0.2,0.3,0.4,0.4c0.4,0.4,0.7,0.6,0.7,0.7
	c0.1,0.2,0.1,0.5,0.1,0.8c-0.1,0.3-0.2,0.4-0.4,0.6c-0.1,0.1-0.4,0.2-0.9,0.3c-0.2,0-0.3,0.1-0.5,0.2c-0.2,0.1-0.3,0.1-0.5,0.2
	c-0.1,0-0.3,0-0.4,0c-0.1,0-0.2,0-0.3,0c-0.1,0-0.2,0-0.3,0c-0.1,0-0.3,0-0.5,0c-0.2,0-0.4,0-0.6-0.1c-0.2,0-0.4-0.1-0.6-0.1
	c-0.2,0-0.4,0-0.6,0s-0.3,0-0.4,0c-0.1,0-0.3,0-0.5,0C14.1,31,14,31,13.9,31c-0.1,0-0.2,0-0.3,0c-0.1,0-0.3,0-0.4,0
	c-0.2,0-0.3,0-0.5,0.1s-0.4,0.1-0.6,0.1c-0.2,0-0.4,0-0.6,0c-0.2,0-0.5,0-0.7,0c-0.2,0-0.5,0-0.7,0.1c-0.2,0-0.5,0-0.7,0
	c-0.3,0-0.5,0-0.8,0c-0.2,0-0.5,0-0.7,0c-0.2,0-0.5,0-0.7,0s-0.4,0-0.6,0c-0.2,0-0.4,0-0.6-0.1c-0.2-0.1-0.3-0.1-0.5-0.1
	c-0.1,0-0.2,0-0.3,0s-0.2,0-0.3-0.1c-0.1,0-0.2-0.1-0.3-0.2c-0.1-0.1-0.2-0.1-0.2-0.2c-0.4-0.2-0.5-0.3-0.5-0.3
	c-0.1-0.1-0.2-0.2-0.4-0.5c-0.3-0.3-0.4-0.6-0.5-0.8c-0.1-0.2-0.2-0.5-0.3-0.9c-0.2-0.5-0.3-0.8-0.3-0.8c0-0.1,0-0.3,0-0.4
	c0-0.1,0-0.2,0-0.3c0-0.2,0-0.3-0.1-0.4c0-0.1-0.1-0.3-0.1-0.4c0-0.1,0-0.2,0-0.3c0-0.1,0-0.2,0.1-0.3c0-0.1,0-0.2,0-0.3
	c0-0.1,0-0.2,0-0.4c0-0.1,0-0.3,0-0.4c0-0.2,0.1-0.4,0.1-0.5c-0.2,0-0.3,0-0.5,0c-0.1,0-0.3,0-0.5,0c-0.1,0-0.3,0-0.4-0.1
	c-0.1,0-0.2-0.1-0.4-0.1c-0.1,0-0.2,0-0.3,0c-0.1,0-0.2,0-0.2,0c0,0-0.1,0-0.1,0c0-0.1,0-0.1,0-0.2c0-0.1,0-0.1,0-0.2
	c0-0.1,0-0.1,0.1-0.2c0-0.1,0.1-0.1,0.1-0.2c0-0.1,0-0.1,0-0.2c0-0.1,0-0.1,0-0.2c0-0.1,0-0.1,0-0.2c0-0.1,0-0.1,0-0.2
	c0.1,0,0.2-0.1,0.2-0.1c0.1-0.1,0.1-0.1,0.2-0.1c0.1,0,0.2-0.1,0.3-0.1c0.1,0,0.2,0,0.3-0.1C1.2,21,1.3,21,1.4,21s0.2-0.1,0.2-0.1
	s0.2-0.1,0.3-0.1s0.2,0,0.3-0.1c0,0,0-0.1,0-0.1c-0.1,0,0,0,0.1,0.1c0,0,0,0,0.1,0s0.1,0,0.1,0c0,0,0,0,0.1,0s0.1,0,0.1,0
	c0-0.1,0-0.2,0-0.4c0-0.1,0-0.3,0-0.4c0-0.1,0-0.3,0-0.4c0-0.1,0-0.3,0-0.4c0-0.1,0-0.3,0-0.4c0-0.1,0-0.3,0-0.4c0-0.1,0-0.3,0-0.4
	c0-0.1,0.1-0.3,0.1-0.4c0-0.2,0-0.4,0-0.6c0-0.2,0-0.4,0-0.6c0-0.2,0-0.4,0.1-0.6c0-0.2,0.1-0.4,0.1-0.6v-0.6c0-0.2,0-0.4,0-0.6
	c0-0.2,0-0.4,0.1-0.6c0-0.2,0.1-0.4,0.1-0.6c0-0.4,0-0.7,0-1.1c0-0.4,0-0.7,0.1-1c0-0.3,0.1-0.6,0.1-0.9c0-0.3,0.1-0.6,0.1-0.8
	c0-0.2,0-0.5,0-0.7c0-0.2,0-0.4,0-0.6c0-0.1,0-0.3,0.1-0.4C3.5,7,3.6,7,3.6,6.9c0-0.3,0.1-0.4,0.2-0.5c0,0,0.1,0,0.5-0.2
	c0.1,0,0.1-0.1,0.2-0.1C4.5,6,4.6,5.9,4.6,5.9c0.1,0,0.1,0,0.2,0C5,5.9,5.2,5.9,5.3,5.9s0.3,0,0.6,0.1C6.1,6,6.4,6,6.7,6
	C7,6,7.3,6,7.6,5.9c0.3,0,0.7-0.1,1-0.1c0.3,0,0.7,0,1.1,0c0.4,0,0.8,0,1.1,0c0.1,0,0.3,0,0.5,0c0.2,0,0.3,0,0.5,0
	c0.1,0,0.3,0,0.4,0c0.1,0,0.3,0,0.4,0s0.3,0,0.4,0c0.2,0,0.3,0,0.4,0c0.1,0,0.3,0,0.4,0c0.1,0,0.3,0,0.4,0c0.2,0,0.3,0,0.5,0
	c0.2,0,0.3,0,0.5,0c0.1,0,0.3,0,0.4,0c0.1,0,0.3,0,0.4,0s0.2,0,0.3,0c0.1,0,0.2,0,0.3,0c0.1,0,0.1,0,0.2,0.1C16.9,6,17,6,17,6
	c0.3,0.1,0.6,0.2,0.8,0.3c0.1,0.1,0.1,0.3,0.2,0.4c0,0.2,0.1,0.3,0.2,0.5c0.1,0.2,0.1,0.3,0.2,0.4c0.1,0.1,0.1,0.3,0.2,0.4
	c0,0.1,0,0.2,0.1,0.4c-0.1,0-0.1,0.1-0.2,0.1c-0.1,0-0.2,0-0.3,0c-0.1,0-0.2,0-0.3,0c-0.1,0-0.3,0-0.4,0L5.8,8.7z M26.4,5.9
	c0.1,0,0.2,0,0.2,0c0.1,0,0.2,0,0.2,0c0.1,0,0.2,0,0.2,0.1C27.3,6,27.4,6,27.5,6c0.1,0,0.1,0,0.2-0.1s0.2-0.1,0.2-0.1
	c0.1,0,0.2,0,0.2,0c0.1,0,0.2,0,0.3,0c0,0.1,0.1,0.1,0.1,0.2c0.1,0.1,0.1,0.1,0.2,0.2c0,0.1,0.1,0.2,0.1,0.3c0,0.1,0,0.2,0.1,0.2
	c0,0.1,0.1,0.1,0.2,0.2c0.1,0,0.1,0.1,0.2,0.1l0.1,0.2c0,0.1,0.1,0.1,0.1,0.2c0,0,0.1,0,0.1,0c0,0,0.1,0,0.1,0.1
	c0.1,0,0.1,0.1,0.2,0.1c0.1,0,0.2,0.1,0.2,0.1l0.3,0.1c0.1,0.1,0.2,0.1,0.3,0.2c0.1,0.1,0.2,0.1,0.3,0.2c0.1,0.1,0.2,0.1,0.4,0.2
	c0.1,0.1,0.3,0.1,0.4,0.2c0.1,0.1,0.3,0.2,0.4,0.3s0.3,0.2,0.4,0.3c0.1,0.1,0.3,0.1,0.5,0.2c0.2,0,0.3,0.1,0.5,0.2
	c0.1,0.1,0.3,0.2,0.5,0.3c0.2,0.1,0.3,0.2,0.5,0.3c0.3,0.2,0.7,0.3,1,0.4c0.3,0.1,0.6,0.2,0.9,0.4c0.3,0.1,0.5,0.3,0.7,0.5
	s0.4,0.3,0.6,0.4c0.2,0.1,0.3,0.2,0.5,0.2c0.1,0.1,0.3,0.1,0.4,0.2c0.1,0.1,0.2,0.1,0.3,0.2c0-0.1,0-0.2,0-0.3c0-0.1,0-0.2,0-0.4
	c0-0.1,0-0.3,0-0.5s0-0.4,0-0.6c0-0.2,0-0.4,0-0.6c0-0.2,0-0.4,0-0.6c0-0.2,0.1-0.4,0.1-0.6c0-0.1,0-0.3-0.1-0.5
	c0-0.2-0.1-0.3-0.1-0.5c0-0.1,0-0.3,0.1-0.4c0-0.1,0.1-0.2,0.1-0.4c0-0.1,0-0.2,0-0.4c0-0.1,0-0.2,0-0.4c0-0.2,0-0.3,0.1-0.4
	c0.1-0.2,0.3-0.4,0.7-0.5c0.3,0,0.7,0,1.3,0c0.2,0,0.4,0,0.7,0c0.2,0,0.4,0,0.6,0.1c0.2,0,0.3,0.1,0.5,0.2C42.9,5.7,43,5.8,43,5.8
	c0.2,0.1,0.3,0.2,0.3,0.2c0,0.1,0.1,0.2,0.1,0.3c0,0.1,0.1,0.3,0.1,0.4c0,0.1,0.1,0.2,0.2,0.3c0.1,0.1,0.1,0.2,0.2,0.3
	c0,0.1,0,0.3,0,0.4c0,0.1,0,0.2,0,0.3c0,0.4,0,0.7-0.1,1.1c0,0.3-0.1,0.5-0.1,0.8c-0.1,0.3-0.1,0.6-0.1,0.9c0,0.3-0.1,0.6-0.1,0.9
	c0,0.3,0,0.6-0.1,0.8c0,0.2-0.1,0.5-0.2,0.6c-0.1,0.2-0.1,0.3-0.1,0.4c0,0.1,0,0.2,0,0.3c0,0.2,0.1,0.4,0.1,0.7c0,0.3,0,0.6,0,1
	c0,0.4,0,0.8,0.1,1.2c0,0.4,0.1,0.9,0.1,1.4c0,0.5,0.1,1,0.1,1.5c0,0.5,0,1,0,1.6c0,0.5,0,1,0,1.5c0,0.3,0,0.6,0.1,0.9
	c0,0.3,0.1,0.6,0.1,0.8c0,0.3,0,0.6,0,0.8s0,0.5,0,0.7c0,0.2,0,0.4,0,0.6c0,0.2,0,0.3,0,0.5c0,0.1,0,0.3-0.1,0.5
	c0,0.3-0.1,0.5-0.2,0.8c-0.1,0.2-0.2,0.5-0.5,0.9c-0.2,0.4-0.4,0.7-0.6,0.8c-0.2,0.2-0.5,0.3-0.8,0.3c-0.3,0-0.5-0.1-0.8-0.3
	c-0.2-0.1-0.4-0.4-0.6-0.8c-0.3-0.5-0.5-0.8-0.6-0.9c-0.1-0.1-0.1-0.4-0.2-0.7c-0.1-0.3-0.1-0.5,0-0.6c0-0.1,0.1-0.2,0.2-0.3
	c0.1-0.1,0.2-0.2,0.2-0.3c0-0.1,0.1-0.2,0.1-0.3c0-0.1,0.1-0.2,0.1-0.3c0-0.1,0.1-0.1,0.1-0.2c0-0.5-0.1-0.9-0.1-1.2
	c0-0.4,0-0.8,0-1.3c0-0.5,0-1,0-1.5c0-0.5-0.1-1-0.1-1.5s-0.1-1-0.1-1.4c0-0.4,0-0.7,0-1c0-0.3,0-0.5,0-0.5c0,0-0.2-0.3-0.5-0.7
	c-0.3-0.3-0.6-0.6-1-1c-0.2-0.2-0.4-0.4-0.7-0.6c-0.2-0.2-0.5-0.4-0.7-0.6c-0.2-0.2-0.4-0.4-0.6-0.6s-0.4-0.4-0.6-0.6
	c-0.2-0.2-0.5-0.4-0.8-0.6c-0.3-0.2-0.6-0.4-0.9-0.6c-0.3-0.2-0.7-0.4-1-0.6c-0.3-0.2-0.6-0.4-0.9-0.5c-0.3-0.1-0.6-0.3-0.9-0.4
	c-0.3-0.1-0.5-0.2-0.7-0.3c-0.2-0.1-0.4-0.2-0.7-0.3c-0.1,0-0.1,0-0.2,0.1c-0.1,0-0.1,0-0.2,0c0.1,0,0,0-0.4,0c-0.1,0-0.1,0-0.2,0.1
	c-0.1,0-0.1,0-0.2,0c-0.1,0-0.1,0-0.2,0h-0.2c0,0.6,0,1.1,0,1.7c0,0.6,0,1.1,0,1.7c0,0.6,0,1.1,0,1.7c0,0.6,0,1.1,0,1.7
	c0,0.6,0,1.1,0,1.7s0,1.1,0,1.6c0,0.6,0,1.1,0,1.7c0,0.6,0,1.1,0,1.7c0,0,0,0,0.1,0c0,0,0.1,0,0.1,0c0.1,0.2,0.1,0.2,0,0.2
	c0-0.1,0-0.1,0.2,0c0.1,0.2,0.1,0.3,0,0.2c0,0,0,0.1,0,0.1c0,0,0,0.1,0,0.1c0,0,0,0.1-0.1,0.1c0,0-0.1,0.1-0.1,0.1c0-0.1,0,0,0,0.3
	c0,0,0,0.1-0.1,0.1c0,0.1-0.1,0.1-0.1,0.1c0.1,0.2,0.1,0.4,0.1,0.6c0,0.2,0,0.4,0,0.7c0,0.3,0,0.5,0,0.8c0,0.3,0,0.5,0.1,0.8
	c0.1,0.2,0.1,0.5,0.1,0.7c0,0.2,0,0.4,0,0.6c0,0.2,0,0.3,0,0.4c0,0.3,0,0.5-0.1,0.6c-0.1,0.1-0.3,0.4-0.6,0.7
	c-0.3,0.3-0.6,0.6-0.9,0.7c-0.3,0.1-0.7,0.2-1.2,0.2c-0.4,0-0.5,0-0.5,0c-0.1,0-0.1-0.1-0.2-0.1c0,0-0.1-0.1-0.2-0.1
	c-0.1,0-0.1-0.1-0.2-0.1c-0.1,0-0.2,0-0.2-0.1c0,0,0-0.1-0.2-0.4c-0.2-0.2-0.3-0.4-0.4-0.6c0-0.1-0.1-0.2-0.1-0.3
	c0-0.1,0-0.2-0.1-0.3s-0.1-0.2-0.1-0.3S24,29.4,24,29.3c0-0.1,0-0.2,0-0.2c0-0.1,0-0.1,0-0.2c-0.1-0.4-0.1-0.6-0.1-0.7
	c0-0.1,0.1-0.2,0.2-0.3c0.1-0.1,0.1-0.2,0.2-0.3c0-0.1,0.1-0.2,0.1-0.3c0-0.1,0.1-0.2,0.1-0.3c0,0,0.1-0.1,0.2-0.1
	c0-0.1,0-0.2,0-0.4c0-0.1,0-0.3,0-0.4c0-0.1,0-0.2,0-0.3c0-0.1,0.1-0.2,0.1-0.4c0-0.1,0-0.2,0-0.4c0-0.1,0-0.3,0-0.4
	c0-0.1,0-0.2,0.1-0.3c0.1-0.1,0.1-0.2,0.1-0.4c0-0.3,0-0.5,0-0.8c0-0.3,0-0.5,0-0.8c0-0.3,0.1-0.5,0.1-0.8c0-0.3,0.1-0.5,0.1-0.8
	c0-0.3,0-0.5,0-0.8c0-0.3,0-0.5,0-0.8c0-0.3,0-0.5,0.1-0.8c0-0.3,0.1-0.5,0.1-0.8c0,0,0,0-0.1,0c0,0,0,0,0-0.1c0,0,0,0,0,0
	c0,0,0,0,0,0c0,0.1,0,0.1-0.1-0.1c0-0.1,0-0.1,0-0.1c0,0,0,0,0-0.1c0,0,0-0.1,0-0.1c0,0,0,0,0.1,0c0,0,0.1,0,0.1-0.1
	c0-0.2,0-0.2,0-0.2c0,0,0,0,0,0c0,0,0,0,0.1-0.1c0-0.3,0-0.6,0-1c0-0.3,0-0.7,0.1-1c0-0.3,0.1-0.6,0.1-1c0.1-0.3,0.1-0.6,0.2-1
	c0-0.3,0-0.6,0-1s0-0.7,0.1-1c0-0.3,0.1-0.7,0.1-1c0-0.3,0.1-0.6,0.1-1c0-0.1,0-0.2,0-0.4c0-0.1,0-0.3,0-0.4c0-0.1,0-0.3,0.1-0.4
	s0.1-0.2,0.1-0.4c0-0.1,0-0.3,0-0.4c0-0.1,0-0.3,0-0.4C26.4,6.3,26.4,6,26.4,5.9 M82.1,28.1c0.4,0,0.6,0.1,0.7,0.2
	c0,0.1,0.1,0.2,0,0.3c0,0.1,0,0.2,0,0.4c0,0.1,0,0.2,0.1,0.3c0,0.1,0.1,0.2,0.1,0.3c0,0.1-0.1,0.2-0.1,0.3v0.1c0,0-0.1,0.1-0.1,0.1
	c0,0-0.1,0.1-0.1,0.1c0,0.1,0,0.1,0,0.2c0,0.1,0,0.1,0,0.2c0,0.1-0.1,0.1-0.2,0.2c-0.1,0-0.1,0.1-0.2,0.1C82.1,31,82,31.1,82,31.1
	c-0.1,0-0.2,0-0.3,0c-0.1,0-0.2,0-0.3,0c-0.1,0-0.2,0-0.4,0c-0.1,0-0.3,0-0.4,0c-0.1,0-0.3,0-0.5,0c-0.2,0-0.3,0-0.5-0.1
	c-0.7,0-1.2,0-1.5,0c-0.2,0-0.5,0-0.7-0.1c-0.2,0-0.5-0.1-0.7-0.1c-0.2,0-0.4,0-0.6,0c-0.2,0-0.3,0-0.4,0c-0.1,0-0.3,0-0.4,0l0,0
	c0,0-0.1,0-0.1,0c0,0-0.1,0-0.1,0s-0.1,0-0.2,0c-0.1,0-0.2,0-0.3,0c-0.1,0-0.2,0-0.4-0.1c-0.1,0-0.3-0.1-0.5-0.1c-0.1,0-0.2,0-0.3,0
	c-0.1,0-0.2,0-0.3,0h-0.9c-0.2,0-0.4,0-0.6,0.1c-0.2,0-0.4,0.1-0.6,0.1c-0.2,0-0.4,0-0.6,0s-0.4,0-0.6,0c-0.3,0-0.5,0.1-0.8,0.1
	c-0.3,0-0.5,0.1-0.8,0.1c-0.3,0-0.5,0-0.8,0c-0.2,0-0.5,0-0.7,0c-0.2,0-0.4,0-0.6,0.1c-0.2,0-0.3,0-0.5,0c-0.1,0-0.3,0-0.6-0.1
	C65.2,31.1,65,31,65,31c0,0,0-0.1-0.2-0.4c-0.2-0.2-0.3-0.3-0.2-0.2c0,0,0-0.1-0.1-0.1c0-0.6,0-1.1,0.1-1.6c0-0.5,0-1,0.1-1.7
	c0-0.6,0.1-1.3,0.1-2c0-0.7,0-1.4,0-2s0-1.3,0-1.9c0-0.6,0-1.1,0-1.5c0-0.4,0-0.8,0-1c0-0.1,0-0.2,0-0.4c0-0.2,0-0.3,0-0.5
	c0-0.2,0-0.4,0-0.7c0-0.2,0-0.5,0-0.8c0-0.3,0-0.6,0-0.9c0-0.3,0-0.6,0-1c0-0.3,0-0.6,0-1c0-0.3,0-0.7,0-1v-2.2c0-0.4,0-0.7,0-1
	c0-0.3,0-0.6,0-0.9c0-0.3,0-0.6,0-0.8s0-0.5,0-0.7c0-0.3,0.1-0.6,0.1-0.7c0.1-0.2,0.2-0.3,0.3-0.4c0.1,0,0.2-0.1,0.3,0
	c0.1,0,0.2,0,0.3,0c0.1,0,0.2,0,0.3-0.1s0.2-0.1,0.2-0.1c0.1,0,0.1,0,0.2,0.1c0,0,0.1,0,0.1,0c0,0,0,0.1,0,0.1c0,0,0,0.1,0.1,0.1
	s0.1,0.1,0.2,0.1c0.1,0,0.1,0,0.2,0.1l0.2,0.3c0.1,0.1,0.1,0.2,0.1,0.5c0,0.1,0,0.3,0,0.5c0,0.2,0,0.4,0,0.6c0,0.2,0,0.5,0,0.8
	c0,0.3,0,0.5,0,0.8c0,0.3,0,0.6,0,0.9c0,0.3,0,0.6,0,1c0,0.4,0,0.8,0,1.2c0,0.4,0,0.8,0,1.2c0,0.4,0,0.8,0,1.2c0,0.4,0,0.7,0,1.1
	c0,0.3,0,0.7,0,1c0,0.3,0,0.6,0,0.8c0,0.2,0,0.4-0.1,0.6c0,0.2-0.1,0.3-0.1,0.3c0,0.1,0,0.2,0.1,0.3c0,0.1,0.1,0.3,0.1,0.5
	c0,0.2,0,0.4-0.1,0.7c0,0.2-0.1,0.5,0,0.8c0,0.3,0,0.6,0.1,0.9c0.1,0.3,0.1,0.6,0.1,0.9c0,0.3,0,0.6,0,0.9c0,0.3,0,0.6,0,0.9
	c0.1,0.6,0.1,1,0.1,1.2c0,0.2,0,0.4,0,0.6c0,0.2,0,0.3,0,0.5c0,0.1,0,0.3,0.1,0.4c0.1,0.1,0.1,0.2,0.1,0.3c0.1,0.4,0.1,0.5,0,0.4
	c-0.1-0.1,0.1-0.1,0.4,0.1c0.1,0,0.2,0.1,0.2,0.1c0.1,0.1,0.2,0.1,0.3,0.1L82.1,28.1L82.1,28.1z M102,29.2l-4.1-18.9
	c0,0-0.1,0.1-0.2,0.3l-6.7,14.1c-0.1,0.2-0.2,0.4-0.2,0.5c-0.1,0.2-0.1,0.3-0.2,0.4s-0.1,0.2-0.2,0.3c0,0.1,0,0.2,0,0.3v0.3
	c0,0.1-0.1,0.2-0.1,0.3c0,0.1-0.1,0.2-0.1,0.3c0,0.1,0,0.2,0,0.3c0,0.1,0,0.2,0,0.3c0,0.1-0.1,0.2-0.1,0.3c0,0.1-0.1,0.2-0.1,0.3
	c-0.1,0.1-0.1,0.2-0.2,0.3c-0.1,0.1-0.1,0.2-0.2,0.2c-0.1,0.1-0.2,0.2-0.2,0.2L89,29.4c-0.1,0.1-0.1,0.2-0.2,0.3
	c0,0.1-0.1,0.2-0.2,0.3c-0.1,0.1-0.2,0.2-0.2,0.2c-0.1,0.1-0.2,0.2-0.2,0.2c-0.1,0-0.1,0-0.2,0c-0.1,0-0.1,0-0.2,0
	c-0.1,0-0.1,0-0.2-0.1c-0.1,0-0.1-0.1-0.2-0.1c-0.1,0-0.1,0-0.2,0c-0.1,0-0.1,0-0.2,0c-0.1,0-0.1,0-0.2,0c-0.1,0-0.1,0-0.2,0
	c-0.1-0.1-0.1-0.1-0.2-0.2c-0.1,0-0.1-0.1-0.2-0.2c-0.1-0.1-0.1-0.1-0.1-0.2c0-0.1-0.1-0.1-0.1-0.2c0-0.1-0.1-0.1-0.2-0.2
	c-0.1,0-0.1-0.1-0.2-0.2c-0.1-0.1-0.1-0.1-0.1-0.2c0-0.1-0.1-0.1-0.1-0.2c0-0.1,0-0.1,0-0.2s0-0.2,0.1-0.2c0-0.1,0.1-0.1,0.1-0.2
	s0.1-0.1,0.1-0.2c0-0.1,0-0.2,0-0.3c0-0.1,0-0.2,0-0.3c0-0.1,0.1-0.1,0.1-0.2c0.1-0.1,0.1-0.1,0.1-0.2c0.1-0.1,0.2-0.2,0.3-0.3
	c0.1-0.1,0.2-0.2,0.3-0.3c0.1-0.1,0.2-0.1,0.3-0.2c0.1-0.1,0.2-0.1,0.3-0.2c0.1-0.1,0.2-0.2,0.3-0.3c0.1-0.1,0.2-0.2,0.3-0.3
	c0.1-0.1,0.2-0.2,0.3-0.2s0.2-0.1,0.3-0.2c0.1-0.2,0.2-0.5,0.3-0.7c0.1-0.2,0.2-0.5,0.3-0.7c0.1-0.2,0.2-0.5,0.4-0.7
	c0.1-0.2,0.2-0.5,0.4-0.7c0.1-0.2,0.2-0.5,0.3-0.7s0.2-0.5,0.3-0.7c0.1-0.2,0.2-0.4,0.4-0.7c0.1-0.2,0.3-0.5,0.4-0.7
	c0.2-0.4,0.4-0.9,0.8-1.6c0.1-0.3,0.3-0.5,0.4-0.8c0.1-0.3,0.3-0.5,0.4-0.8c0.1-0.3,0.2-0.5,0.4-0.8c0.1-0.3,0.2-0.5,0.4-0.8
	c0.1-0.3,0.3-0.5,0.4-0.8s0.3-0.5,0.5-0.8c0.1-0.2,0.2-0.4,0.3-0.7c0.1-0.2,0.2-0.5,0.3-0.7c0.1-0.2,0.2-0.4,0.4-0.6
	c0.1-0.2,0.3-0.4,0.4-0.6c0.1-0.2,0.2-0.4,0.3-0.6c0.1-0.2,0.2-0.4,0.3-0.7s0.2-0.4,0.3-0.6c0.1-0.2,0.2-0.4,0.3-0.6
	c0-0.1,0.1-0.2,0.1-0.3s0.1-0.2,0.1-0.3c0-0.1,0.1-0.2,0.2-0.2c0.1-0.1,0.1-0.2,0.2-0.3c0-0.1,0.1-0.2,0.1-0.3
	c0-0.1,0.1-0.2,0.1-0.3c0.2-0.4,0.3-0.5,0.3-0.5c0.1,0.1,0.2,0.3,0.3,0.4l0.3,0.4C98.8,6.8,98.9,7,99,7.1c0.1,0.2,0.1,0.3,0.2,0.5
	l7.6,22.1c-0.1,0.1-0.2,0.1-0.3,0.2c-0.1,0.1-0.2,0.1-0.4,0.2c-0.1,0-0.3,0.1-0.4,0.2c-0.2,0.1-0.3,0.2-0.5,0.2
	c-0.2,0.1-0.3,0.2-0.5,0.2c-0.2,0.1-0.6,0.1-1,0.1c-0.3,0-0.6,0-0.8-0.1c-0.1-0.1-0.2-0.1-0.3-0.2s-0.2-0.2-0.2-0.3
	c-0.1-0.1-0.2-0.2-0.2-0.2c-0.1-0.1-0.1-0.1-0.2-0.2c0-0.1-0.1-0.1-0.1-0.2 M119.6,23.8c0.1,0.2,0.2,0.3,0.3,0.5
	c0.1,0.1,0.1,0.3,0.1,0.4c0,0.1,0,0.2,0.1,0.2c0.2,0.6,0.3,1.2,0.2,1.6c-0.1,0.3-0.2,0.5-0.3,0.7c-0.1,0.2-0.3,0.4-0.4,0.6
	c-0.1,0.2-0.2,0.4-0.3,0.6c-0.1,0.2-0.2,0.4-0.3,0.5c-0.1,0.2-0.2,0.3-0.4,0.4c-0.1,0.1-0.2,0.2-0.2,0.2c-0.1,0.1-0.1,0.2-0.3,0.5
	c-0.1,0.2-0.3,0.5-0.5,0.8c-0.2,0.3-0.5,0.6-0.8,1c-0.3,0.3-0.6,0.7-0.9,1.1c-0.3,0.4-0.6,0.7-0.9,1.1c-0.3,0.4-0.6,0.7-0.8,1
	c-0.5,0.5-0.9,0.8-1.2,0.9c-0.3,0.1-0.5,0.1-0.7,0.1c-0.2,0-0.5-0.1-0.7-0.1c-0.4-0.1-0.7-0.2-0.7-0.2c-0.2-0.1-0.3-0.2-0.4-0.5
	c-0.1-0.1-0.1-0.1-0.2-0.2c-0.1-0.1-0.1-0.1-0.2-0.2c0,0-0.1-0.2-0.1-0.4c0-0.3,0-0.4,0-0.5c0.1-0.1,0.1-0.2,0.3-0.2
	s0.3-0.2,0.4-0.3c0.1-0.1,0.2-0.2,0.2-0.3s0.2-0.3,0.3-0.5c0.1-0.2,0.3-0.3,0.5-0.5c0.2-0.2,0.4-0.4,0.6-0.6
	c0.2-0.2,0.3-0.4,0.5-0.7c0.2-0.3,0.3-0.5,0.5-0.8c0.2-0.3,0.4-0.5,0.6-0.8c0.2-0.2,0.4-0.5,0.6-0.8c0.1-0.2,0.2-0.4,0.3-0.5
	c0.1-0.2,0.2-0.4,0.3-0.5c0.1-0.1,0.2-0.3,0.4-0.4s0.2-0.3,0.4-0.4c0.1-0.1,0.2-0.3,0.2-0.4c0-0.1,0.1-0.3,0.2-0.4
	c0.2-0.4,0.3-0.6,0.3-0.5c0-0.1,0-0.3,0-0.4c0-0.1-0.1-0.3-0.1-0.4c-0.1-0.3-0.2-0.6-0.3-0.7c0-0.1-0.1-0.2-0.3-0.5
	c0,0-0.1-0.1-0.1-0.2c-0.3-0.3-0.5-0.5-0.7-0.8c-0.2-0.3-0.4-0.7-0.7-1.1c-0.2-0.4-0.5-0.9-0.8-1.4c-0.3-0.5-0.7-1-1.1-1.5
	c-0.4-0.5-0.7-1-1.1-1.6c-0.7-1-1.3-2.1-2-3.3c-0.1-0.2-0.3-0.4-0.4-0.7s-0.2-0.4-0.3-0.7c-0.1-0.2-0.3-0.6-0.5-1.2
	c-0.2-0.6-0.4-0.9-0.4-1c-0.1-0.2-0.1-0.5,0-0.8c0-0.1,0-0.2,0-0.4c0-0.1,0-0.2,0-0.4c0-0.1,0.1-0.2,0.2-0.3
	c0.1-0.1,0.1-0.2,0.2-0.3c0.1-0.1,0.1-0.2,0.1-0.3c0-0.1,0.1-0.2,0.2-0.3c0.1-0.1,0.2-0.2,0.3-0.3c0.1-0.1,0.2-0.2,0.3-0.3
	c0.1-0.2,0.3-0.4,0.4-0.6c0.1-0.2,0.3-0.4,0.5-0.6c0.2-0.2,0.4-0.3,0.6-0.4c0.2-0.1,0.4-0.3,0.6-0.4c0.2-0.1,0.3-0.3,0.4-0.4
	c0.1-0.1,0.3-0.3,0.4-0.4c0.1-0.1,0.3-0.2,0.4-0.3c0.1-0.1,0.2-0.1,0.3-0.2c0.1-0.1,0.3-0.2,0.5-0.4c0.2-0.2,0.4-0.3,0.7-0.5
	c0.3-0.2,0.5-0.3,0.9-0.5s0.6-0.3,1-0.5c0.3-0.2,0.6-0.4,0.9-0.6c0.3-0.2,0.6-0.3,1-0.5c0.5-0.2,1.1-0.3,1.7-0.3c0.7,0,1.1,0,1.2,0
	c0.1,0.1,0.3,0.2,0.5,0.5c0.2,0.2,0.3,0.4,0.3,0.5c0,0.1,0.1,0.2,0.1,0.3c0,0.1,0.1,0.2,0.1,0.3c0,0-0.1,0.1-0.1,0.1
	c0,0-0.1,0.1-0.4,0.3c-0.1,0.1-0.1,0.1-0.2,0.2c-0.1,0.1-0.2,0.2-0.3,0.2c-0.1,0.1-0.2,0.1-0.4,0.1c-0.1,0-0.3,0.1-0.4,0.1
	c-0.1,0-0.1,0.1-0.2,0.1c-0.1,0.1-0.1,0.1-0.2,0.1c-0.1,0-0.2,0.1-0.3,0.1c-0.1,0-0.2,0.1-0.3,0.1c-0.1,0.1-0.2,0.1-0.3,0.2
	c-0.1,0.1-0.2,0.1-0.3,0.2c-0.1,0.1-0.2,0.1-0.3,0.2c-0.1,0-0.2,0.1-0.3,0.2c-0.4,0.3-0.7,0.5-0.7,0.6c-0.3,0.2-0.5,0.4-0.8,0.5
	c-0.1,0.1-0.3,0.2-0.4,0.3c-0.1,0.1-0.2,0.2-0.4,0.2c-0.1,0.1-0.2,0.2-0.4,0.2s-0.2,0.1-0.3,0.1c-0.2,0.1-0.4,0.3-0.6,0.5
	c-0.2,0.2-0.4,0.4-0.5,0.6c-0.2,0.2-0.4,0.4-0.6,0.6c-0.2,0.2-0.4,0.4-0.5,0.6c-0.1,0.2-0.3,0.5-0.3,0.7l-0.2,0.7
	c-0.2,0.5-0.3,0.9-0.3,1L119.6,23.8L119.6,23.8z M175.5,29.2l-4.1-18.9c0,0-0.1,0.1-0.2,0.3l-6.7,14.1c-0.1,0.2-0.2,0.4-0.2,0.5
	c-0.1,0.2-0.1,0.3-0.2,0.4s-0.1,0.2-0.2,0.3c0,0.1,0,0.2,0,0.3v0.3c0,0.1-0.1,0.2-0.1,0.3c0,0.1-0.1,0.2-0.1,0.3c0,0.1,0,0.2,0,0.3
	c0,0.1,0,0.2,0,0.3c0,0.1-0.1,0.2-0.1,0.3c0,0.1-0.1,0.2-0.1,0.3c-0.1,0.1-0.1,0.2-0.2,0.3c-0.1,0.1-0.1,0.2-0.2,0.2
	c-0.1,0.1-0.1,0.2-0.2,0.2l-0.2,0.2c-0.1,0.1-0.1,0.2-0.2,0.3c-0.1,0.1-0.1,0.2-0.2,0.3c-0.1,0.1-0.1,0.2-0.2,0.2
	c-0.1,0.1-0.2,0.2-0.2,0.2c-0.1,0-0.1,0-0.2,0c-0.1,0-0.1,0-0.2,0s-0.1,0-0.2-0.1c-0.1,0-0.1-0.1-0.2-0.1s-0.1,0-0.2,0s-0.1,0-0.2,0
	c-0.1,0-0.1,0-0.2,0c-0.1,0-0.1,0-0.2,0c0-0.1-0.1-0.1-0.2-0.2c-0.1,0-0.1-0.1-0.2-0.2c-0.1-0.1-0.1-0.1-0.1-0.2l-0.1-0.2
	c-0.1-0.1-0.1-0.1-0.2-0.2c-0.1,0-0.1-0.1-0.2-0.2c-0.1-0.1-0.1-0.1-0.1-0.2c0-0.1-0.1-0.1-0.1-0.2c0-0.1,0-0.1,0-0.2s0-0.2,0.1-0.2
	c0-0.1,0.1-0.1,0.1-0.2c0.1-0.1,0.1-0.1,0.1-0.2c0-0.1,0-0.2,0-0.3c0-0.1,0-0.2,0-0.3c0-0.1,0.1-0.1,0.1-0.2
	c0.1-0.1,0.1-0.1,0.1-0.2c0.1-0.1,0.2-0.2,0.3-0.3c0.1-0.1,0.2-0.2,0.3-0.3c0.1-0.1,0.2-0.1,0.3-0.2s0.2-0.1,0.3-0.2
	c0.1-0.1,0.2-0.2,0.3-0.3c0.1-0.1,0.2-0.2,0.3-0.3c0.1-0.1,0.2-0.2,0.3-0.2s0.2-0.1,0.3-0.2c0.1-0.2,0.2-0.5,0.3-0.7
	c0.1-0.2,0.2-0.5,0.3-0.7c0.1-0.2,0.2-0.5,0.4-0.7c0.1-0.2,0.2-0.5,0.4-0.7c0.1-0.2,0.2-0.5,0.3-0.7s0.2-0.5,0.3-0.7
	c0.1-0.2,0.2-0.4,0.4-0.7c0.1-0.2,0.3-0.5,0.4-0.7c0.2-0.4,0.4-0.9,0.8-1.6c0.1-0.3,0.3-0.5,0.4-0.8c0.1-0.3,0.3-0.5,0.4-0.8
	c0.1-0.3,0.2-0.5,0.4-0.8c0.1-0.3,0.2-0.5,0.4-0.8c0.1-0.3,0.3-0.5,0.4-0.8s0.3-0.5,0.5-0.8c0.1-0.2,0.2-0.4,0.3-0.7
	c0.1-0.2,0.2-0.5,0.3-0.7c0.1-0.2,0.2-0.4,0.4-0.6c0.1-0.2,0.3-0.4,0.4-0.6c0.1-0.2,0.2-0.4,0.3-0.6c0.1-0.2,0.2-0.4,0.3-0.7
	c0.1-0.2,0.2-0.4,0.3-0.6c0.1-0.2,0.2-0.4,0.3-0.6c0-0.1,0.1-0.2,0.1-0.3c0-0.1,0.1-0.2,0.1-0.3c0-0.1,0.1-0.2,0.2-0.2
	c0.1-0.1,0.1-0.2,0.2-0.3c0-0.1,0.1-0.2,0.1-0.3c0-0.1,0.1-0.2,0.1-0.3c0.2-0.4,0.3-0.5,0.3-0.5c0.1,0.1,0.2,0.3,0.3,0.4l0.3,0.4
	c0.1,0.1,0.1,0.3,0.2,0.5s0.1,0.3,0.2,0.5l7.6,22.1c-0.1,0.1-0.2,0.1-0.3,0.2c-0.1,0.1-0.2,0.1-0.4,0.2c-0.1,0-0.3,0.1-0.4,0.2
	c-0.2,0.1-0.3,0.2-0.5,0.2c-0.2,0.1-0.3,0.2-0.5,0.2c-0.2,0.1-0.6,0.1-1,0.1c-0.3,0-0.6,0-0.8-0.1c-0.1-0.1-0.2-0.1-0.3-0.2
	c-0.1-0.1-0.2-0.2-0.2-0.3c-0.1-0.1-0.1-0.2-0.2-0.2c-0.1-0.1-0.1-0.1-0.2-0.2c0-0.1-0.1-0.1-0.1-0.2 M242.5,29.2l-4.1-18.9
	c0,0-0.1,0.1-0.2,0.3l-6.7,14.1c-0.1,0.2-0.2,0.4-0.2,0.5c-0.1,0.2-0.1,0.3-0.2,0.4c-0.1,0.1-0.1,0.2-0.2,0.3c0,0.1,0,0.2,0,0.3v0.3
	c0,0.1-0.1,0.2-0.1,0.3c0,0.1-0.1,0.2-0.1,0.3c0,0.1,0,0.2,0,0.3s0,0.2,0,0.3c0,0.1-0.1,0.2-0.1,0.3c0,0.1-0.1,0.2-0.1,0.3
	c-0.1,0.1-0.1,0.2-0.2,0.3c-0.1,0.1-0.1,0.2-0.2,0.2c-0.1,0.1-0.1,0.2-0.2,0.2l-0.2,0.2c-0.1,0.1-0.1,0.2-0.2,0.3
	c-0.1,0.1-0.1,0.2-0.2,0.3c-0.1,0.1-0.1,0.2-0.2,0.2c-0.1,0.1-0.2,0.2-0.2,0.2c-0.1,0-0.1,0-0.2,0c-0.1,0-0.1,0-0.2,0
	s-0.1,0-0.2-0.1c-0.1,0-0.1-0.1-0.2-0.1s-0.1,0-0.2,0c-0.1,0-0.1,0-0.2,0c-0.1,0-0.1,0-0.2,0c-0.1,0-0.1,0-0.2,0
	c0-0.1-0.1-0.1-0.2-0.2c-0.1,0-0.1-0.1-0.2-0.2c-0.1-0.1-0.1-0.1-0.1-0.2c0-0.1-0.1-0.1-0.1-0.2c0-0.1-0.1-0.1-0.2-0.2
	c-0.1,0-0.1-0.1-0.2-0.2c-0.1-0.1-0.1-0.1-0.1-0.2c0-0.1-0.1-0.1-0.1-0.2c0-0.1,0-0.1,0-0.2s0-0.2,0.1-0.2c0-0.1,0.1-0.1,0.1-0.2
	c0.1-0.1,0.1-0.1,0.1-0.2c0-0.1,0-0.2,0-0.3c0-0.1,0-0.2,0-0.3c0-0.1,0.1-0.1,0.1-0.2c0.1-0.1,0.1-0.1,0.1-0.2
	c0.1-0.1,0.2-0.2,0.3-0.3c0.1-0.1,0.2-0.2,0.3-0.3c0.1-0.1,0.2-0.1,0.3-0.2c0.1-0.1,0.2-0.1,0.3-0.2c0.1-0.1,0.2-0.2,0.3-0.3
	c0.1-0.1,0.2-0.2,0.3-0.3s0.2-0.2,0.3-0.2s0.2-0.1,0.3-0.2c0.1-0.2,0.2-0.5,0.3-0.7c0.1-0.2,0.2-0.5,0.3-0.7
	c0.1-0.2,0.2-0.5,0.4-0.7c0.1-0.2,0.2-0.5,0.4-0.7c0.1-0.2,0.2-0.5,0.3-0.7s0.2-0.5,0.4-0.7c0.1-0.2,0.2-0.4,0.4-0.7
	c0.1-0.2,0.3-0.5,0.4-0.7c0.2-0.4,0.4-0.9,0.8-1.6c0.1-0.3,0.3-0.5,0.4-0.8c0.1-0.3,0.3-0.5,0.4-0.8c0.1-0.3,0.2-0.5,0.4-0.8
	c0.1-0.3,0.2-0.5,0.4-0.8c0.1-0.3,0.3-0.5,0.4-0.8c0.2-0.2,0.3-0.5,0.5-0.8c0.1-0.2,0.2-0.4,0.3-0.7c0.1-0.2,0.2-0.5,0.3-0.7
	c0.1-0.2,0.2-0.4,0.4-0.6c0.1-0.2,0.3-0.4,0.4-0.6c0.1-0.2,0.2-0.4,0.3-0.6c0.1-0.2,0.2-0.4,0.3-0.7c0.1-0.2,0.2-0.4,0.3-0.6
	c0.1-0.2,0.2-0.4,0.3-0.6c0-0.1,0.1-0.2,0.1-0.3c0-0.1,0.1-0.2,0.1-0.3c0-0.1,0.1-0.2,0.2-0.2c0.1-0.1,0.1-0.2,0.2-0.3
	c0-0.1,0.1-0.2,0.1-0.3c0-0.1,0.1-0.2,0.1-0.3c0.2-0.4,0.3-0.5,0.3-0.5c0.1,0.1,0.2,0.3,0.3,0.4l0.3,0.4c0.1,0.1,0.1,0.3,0.2,0.5
	s0.1,0.3,0.2,0.5l7.6,22.1c-0.1,0.1-0.2,0.1-0.3,0.2c-0.1,0.1-0.2,0.1-0.4,0.2c-0.1,0-0.3,0.1-0.4,0.2c-0.2,0.1-0.3,0.2-0.5,0.2
	c-0.2,0.1-0.3,0.2-0.5,0.2c-0.2,0.1-0.6,0.1-1,0.1c-0.3,0-0.6,0-0.8-0.1c-0.1-0.1-0.2-0.1-0.3-0.2s-0.2-0.2-0.2-0.3
	c-0.1-0.1-0.1-0.2-0.2-0.2c-0.1-0.1-0.1-0.1-0.2-0.2c0-0.1-0.1-0.1-0.1-0.2 M260.1,23.8c0.1,0.2,0.2,0.3,0.3,0.5
	c0.1,0.1,0.1,0.3,0.1,0.4c0,0.1,0,0.2,0.1,0.2c0.2,0.6,0.3,1.2,0.2,1.6c-0.1,0.3-0.2,0.5-0.3,0.7c-0.1,0.2-0.3,0.4-0.4,0.6
	c-0.1,0.2-0.2,0.4-0.3,0.6c-0.1,0.2-0.2,0.4-0.3,0.5c-0.1,0.2-0.2,0.3-0.4,0.4c-0.1,0.1-0.2,0.2-0.2,0.2c0,0.1-0.1,0.2-0.3,0.5
	c-0.1,0.2-0.3,0.5-0.5,0.8c-0.2,0.3-0.5,0.6-0.8,1c-0.3,0.3-0.6,0.7-0.9,1.1c-0.3,0.4-0.6,0.7-0.9,1.1c-0.3,0.4-0.6,0.7-0.8,1
	c-0.5,0.5-0.9,0.8-1.2,0.9c-0.3,0.1-0.5,0.1-0.7,0.1c-0.2,0-0.5-0.1-0.7-0.1c-0.4-0.1-0.6-0.2-0.7-0.2c-0.2-0.1-0.3-0.2-0.4-0.5
	c-0.1-0.1-0.1-0.1-0.2-0.2c-0.1-0.1-0.1-0.1-0.2-0.2c0,0-0.1-0.2-0.1-0.4c0-0.3,0-0.4,0-0.5c0.1-0.1,0.1-0.2,0.3-0.2
	s0.3-0.2,0.4-0.3c0.1-0.1,0.1-0.2,0.2-0.3s0.2-0.3,0.3-0.5c0.1-0.2,0.3-0.3,0.5-0.5c0.2-0.2,0.4-0.4,0.6-0.6
	c0.2-0.2,0.3-0.4,0.5-0.7s0.3-0.5,0.5-0.8c0.2-0.3,0.4-0.5,0.6-0.8c0.2-0.2,0.4-0.5,0.6-0.8c0.1-0.2,0.2-0.4,0.3-0.5
	c0.1-0.2,0.2-0.4,0.3-0.5c0.1-0.1,0.2-0.3,0.4-0.4c0.1-0.1,0.2-0.3,0.4-0.4c0.1-0.1,0.1-0.3,0.2-0.4s0.1-0.3,0.2-0.4
	c0.2-0.4,0.3-0.6,0.3-0.5c0-0.1,0-0.3,0-0.4c0-0.1-0.1-0.3-0.1-0.4c-0.1-0.3-0.2-0.6-0.3-0.7c0-0.1-0.1-0.2-0.3-0.5
	c0,0-0.1-0.1-0.1-0.2c-0.3-0.3-0.5-0.5-0.7-0.8c-0.2-0.3-0.4-0.7-0.7-1.1c-0.2-0.4-0.5-0.9-0.8-1.4c-0.3-0.5-0.7-1-1.1-1.5
	c-0.4-0.5-0.7-1-1.1-1.6c-0.7-1-1.3-2.1-2-3.3c-0.1-0.2-0.3-0.4-0.4-0.7s-0.2-0.4-0.4-0.7c-0.1-0.2-0.3-0.6-0.5-1.2
	c-0.2-0.6-0.4-0.9-0.4-1c-0.1-0.2-0.1-0.5,0-0.8c0-0.1,0-0.2,0-0.4c0-0.1,0-0.2,0-0.4c0-0.1,0.1-0.2,0.2-0.3
	c0.1-0.1,0.1-0.2,0.2-0.3c0.1-0.1,0.1-0.2,0.1-0.3c0-0.1,0.1-0.2,0.2-0.3c0.1-0.1,0.1-0.2,0.3-0.3c0.1-0.1,0.2-0.2,0.3-0.3
	c0.1-0.2,0.3-0.4,0.4-0.6c0.1-0.2,0.3-0.4,0.5-0.6c0.2-0.2,0.4-0.3,0.6-0.4c0.2-0.1,0.4-0.3,0.6-0.4c0.2-0.1,0.3-0.3,0.4-0.4
	c0.1-0.1,0.3-0.3,0.4-0.4c0.1-0.1,0.3-0.2,0.4-0.3c0.1-0.1,0.2-0.1,0.3-0.2c0.1-0.1,0.3-0.2,0.5-0.4s0.4-0.3,0.7-0.5
	c0.3-0.2,0.5-0.3,0.9-0.5c0.3-0.2,0.6-0.3,1-0.5c0.3-0.2,0.6-0.4,0.9-0.6c0.3-0.2,0.6-0.3,1-0.5c0.5-0.2,1.1-0.3,1.7-0.3
	c0.7,0,1.1,0,1.2,0c0.1,0.1,0.3,0.2,0.5,0.5c0.2,0.2,0.3,0.4,0.4,0.5c0,0.1,0.1,0.2,0.1,0.3c0,0.1,0,0.2,0.1,0.3
	c0,0-0.1,0.1-0.1,0.1c0,0-0.1,0.1-0.4,0.3c-0.1,0.1-0.1,0.1-0.2,0.2c-0.1,0.1-0.2,0.2-0.3,0.2c-0.1,0.1-0.2,0.1-0.4,0.1
	c-0.1,0-0.3,0.1-0.4,0.1c-0.1,0-0.1,0.1-0.2,0.1c-0.1,0.1-0.1,0.1-0.2,0.1c-0.1,0-0.2,0.1-0.3,0.1s-0.2,0.1-0.3,0.1
	c-0.1,0.1-0.2,0.1-0.3,0.2c-0.1,0.1-0.2,0.1-0.3,0.2c-0.1,0.1-0.2,0.1-0.3,0.2c-0.1,0-0.2,0.1-0.3,0.2c-0.4,0.3-0.7,0.5-0.7,0.6
	c-0.3,0.2-0.5,0.4-0.8,0.5c-0.1,0.1-0.3,0.2-0.4,0.3c-0.1,0.1-0.2,0.2-0.4,0.2c-0.1,0.1-0.2,0.2-0.4,0.2c-0.1,0-0.2,0.1-0.3,0.1
	c-0.2,0.1-0.4,0.3-0.6,0.5c-0.2,0.2-0.4,0.4-0.5,0.6c-0.2,0.2-0.4,0.4-0.6,0.6c-0.2,0.2-0.4,0.4-0.5,0.6c-0.1,0.2-0.3,0.5-0.4,0.7
	l-0.2,0.7c-0.2,0.5-0.3,0.9-0.3,1L260.1,23.8L260.1,23.8z M138.7,5.7C138.7,5.7,138.7,5.7,138.7,5.7c0-0.1-0.1-0.2-0.1-0.2
	c0,0,0.1,0,0.3-0.2c0.2-0.1,0.3-0.2,0.4-0.2c0.1,0,0.2,0,0.4,0.1c0.2,0.1,0.4,0.1,0.6,0.1c0.3,0,0.5,0,0.8,0c0.3,0,0.6,0,0.9,0
	c0.3,0,0.6,0.1,1,0.1c0.3,0.1,0.6,0.1,1,0.1c0.3,0,0.6,0,0.8,0c0.3,0,0.5,0,0.7,0l0.7,0.1c0.3,0,0.7,0.1,1.1,0.1c0.4,0,0.8,0,1.2,0
	c0.4,0,0.9-0.1,1.3-0.1c0.4,0,0.8,0,1.2,0.1c0.4,0.1,0.8,0.1,1.1,0.1c0.3,0,0.6,0,0.8-0.1c0.2-0.1,0.4-0.1,0.5-0.1
	c0.1,0,0.1,0,0.3,0s0.3,0,0.5,0c0.2,0,0.4,0,0.6-0.1c0.2,0,0.5-0.1,0.7-0.1c0.3,0,0.5,0,0.8,0s0.6,0,0.8,0s0.6,0,0.8-0.1
	c0.3,0,0.5-0.1,0.8-0.1c0.1,0,0.2,0,0.4,0s0.2,0,0.4,0s0.2,0,0.3-0.1c0.1,0,0.2-0.1,0.3-0.1c0.1,0,0.1,0,0.2,0.1
	c0.1,0,0.1,0.1,0.2,0.1c0,0,0.1,0,0.1,0c0.1,0,0.1,0,0.1,0c0,0,0-0.1,0-0.1c0-0.1,0-0.1,0.1-0.1c0.1,0,0.1-0.1,0.2,0s0.1,0,0.2,0
	c0.3-0.1,0.4-0.2,0.4-0.2c0.1,0,0.2,0,0.3,0.1c0.1,0.1,0.2,0.1,0.4,0.1c0.1,0,0.3,0,0.4,0c0.2,0,0.3,0,0.5,0.1
	c0.2,0.1,0.5,0.3,0.8,0.5c0.3,0.3,0.5,0.5,0.6,0.7c0.1,0.2,0,0.5-0.2,0.8c-0.2,0.3-0.4,0.5-0.5,0.7c-0.1,0-0.3,0.2-0.8,0.3
	c-0.3,0.2-0.5,0.2-0.6,0.2c-0.1,0-0.2,0-0.3-0.1c-0.1,0-0.2-0.1-0.4-0.1c-0.1,0-0.3-0.1-0.5-0.1c-0.2,0-0.4,0-0.5-0.1
	c-0.2,0-0.4-0.1-0.5-0.2c-0.2-0.1-0.3-0.1-0.5-0.2c-0.2,0-0.3,0-0.5,0c-0.1,0-0.3,0-0.3,0c-0.1,0-0.3,0-0.5-0.1
	c-0.2-0.1-0.4-0.1-0.7-0.1c-0.3,0-0.6,0-0.9,0c-0.3,0-0.7,0-1,0c-0.3,0-0.7,0-1,0c-0.3,0-0.6,0-0.8,0c-0.5,0-0.8,0.1-0.8,0.3
	c-0.1,0.2-0.2,0.4-0.2,0.5c0,0.1,0,0.3,0,0.5c0,0.2,0,0.4,0,0.6c0,0.2,0,0.5-0.1,0.7c-0.1,0.3-0.1,0.5-0.1,0.8c0,0.3,0,0.6,0,0.9
	s0,0.6,0,1c0,0.5,0,1-0.1,1.5c0,0.5-0.1,1-0.1,1.5c0,0.5,0,1,0.1,1.5c0,0.5,0.1,0.9,0.1,1.3c0,0.4,0,0.8-0.1,1.2
	c0,0.4-0.1,0.7-0.1,1c0,0.3,0,0.5,0,0.7c0,0.2,0,0.3,0,0.3c0-0.1,0,0.1,0,0.4c0,0.1,0,0.2,0,0.4c0,0.1,0,0.3,0,0.5
	c0,0.2,0,0.4,0,0.6c0,0.2,0,0.4,0,0.6c0,0.2,0,0.5,0.1,0.7c0,0.2,0.1,0.5,0.1,0.8c0,0.5,0,0.9-0.1,1.4c0,0.5-0.1,1,0,1.5
	c0,0.5,0,1,0.1,1.5c0,0.5,0.1,0.9,0.1,1.4c0,0.4,0,0.9,0,1.2c0,0.4,0,0.7,0,1c0,0.3,0,0.5,0.1,0.7c0,0.2,0.1,0.3,0.1,0.4
	c0,0.1,0,0.2,0,0.4c0,0.1,0,0.3,0,0.4c0,0.1,0,0.3,0.1,0.5c0,0.2,0.1,0.3,0.1,0.5c0,0.2,0,0.3,0,0.5c0,0.2,0,0.3,0,0.5
	c0,0.1,0,0.3,0.1,0.4c0,0.1,0,0.2,0,0.3c0,0.1-0.1,0.2-0.3,0.4c-0.2,0.3-0.4,0.5-0.3,0.5c-0.1,0-0.2,0.1-0.3,0.1s-0.2,0-0.3,0.1
	c-0.1,0-0.2,0.1-0.3,0.1c-0.1,0.1-0.2,0.1-0.2,0.1c0,0-0.2-0.1-0.6-0.3c-0.5-0.1-0.7-0.2-0.8-0.3c0,0-0.2-0.2-0.6-0.5
	c-0.2-0.2-0.3-0.4-0.4-0.6c0,0,0-0.1,0.1-0.4c0-0.1,0-0.2-0.1-0.3c-0.1-0.1-0.1-0.2-0.1-0.3c0-0.1,0-0.3,0.1-0.4
	c0.1-0.1,0.1-0.3,0.1-0.4c0-0.2,0-0.3,0-0.5c0-0.2,0-0.3,0-0.5c0-0.3,0.1-0.5,0.1-0.8c0-0.3,0.1-0.5,0.1-0.8c0-0.3,0.1-0.5,0.1-0.8
	c0-0.3,0-0.5,0.1-0.8c0-0.3,0.1-0.5,0.1-0.7c0.1-0.2,0.1-0.4,0.1-0.6c0-0.2,0-0.4,0-0.5v-0.4c0-0.2,0-0.5,0-0.9c0-0.4,0-0.8,0.1-1.4
	c0-0.5,0-1.1,0-1.7c0-0.6,0-1.2,0-1.8c0-0.6,0-1.2,0.1-1.8c0.1-0.6,0.1-1.1,0.1-1.7c0-0.5,0-0.9-0.1-1.3c-0.1-0.4-0.1-0.7-0.1-0.9
	c0,0,0-0.1,0.1-0.2c0-0.1,0.1-0.2,0.1-0.2c0-0.1,0-0.2,0-0.3c0-0.1,0-0.2,0-0.3s0-0.2,0-0.3c0-0.1,0-0.2,0-0.4c0-0.1,0-0.3-0.1-0.4
	c0-0.1-0.1-0.3-0.1-0.4c0-0.4,0-0.8,0.1-1.2c0-0.4,0.1-0.8,0.1-1.2c0-0.4,0-0.8,0-1.2c0-0.4,0-0.8,0-1.2c0-0.4,0-0.7,0-1
	s0-0.6,0-0.9c0-0.5-0.1-0.8-0.1-0.9c-0.1-0.2-0.2-0.3-0.4-0.4c-0.1,0-0.2-0.1-0.4,0c-0.1,0-0.3,0-0.4,0c-0.1,0-0.3,0-0.5-0.1
	c-0.2,0-0.3-0.1-0.5-0.1c-0.2,0-0.4,0-0.6,0.1c-0.2,0-0.4,0.1-0.6,0.1c-0.1,0-0.2,0-0.4,0c-0.1,0-0.3,0-0.4,0
	c-0.1,0-0.3,0.1-0.5,0.1c-0.2,0.1-0.3,0.1-0.5,0.1c-0.2,0-0.4,0-0.6,0s-0.4,0-0.6,0c-0.2,0-0.4,0.1-0.6,0.1
	c-0.2,0.1-0.4,0.1-0.6,0.1c-0.1,0-0.3,0-0.4,0c-0.1,0-0.3,0-0.4,0c-0.1,0-0.3,0.1-0.4,0.1c-0.1,0.1-0.2,0.1-0.4,0.1
	c-0.2,0-0.4,0-0.6,0c-0.1,0-0.2,0-0.3,0c-0.1,0-0.2,0-0.2,0c-0.1,0-0.3-0.1-0.4-0.2s-0.2-0.2-0.3-0.3C139.6,8,139.5,8,139.4,8
	s-0.2-0.1-0.3-0.2c-0.1-0.1-0.1-0.1-0.1-0.2c0-0.1,0-0.2-0.1-0.2c0-0.1-0.1-0.1-0.1-0.2c-0.1,0-0.1-0.1-0.1-0.2c0,0.1,0-0.1,0-0.4
	c0-0.1,0-0.1-0.1-0.2c-0.1-0.1-0.1-0.1-0.1-0.2c0-0.1,0.1-0.1,0.1-0.2c0.1,0,0.1-0.1,0.1-0.1c0,0,0-0.1-0.1-0.1
	C138.7,5.8,138.7,5.8,138.7,5.7 M183.6,6.5c0,0,0-0.1,0-0.1c0,0,0.1,0,0.2,0s0.1,0,0.2-0.1c0.1,0,0.1-0.1,0.2-0.2s0.1-0.2,0.2-0.2
	c0.1,0,0.2-0.1,0.3-0.1s0.2-0.1,0.3-0.2c0.1-0.1,0.7-0.2,1.7-0.3c0.4,0,0.9,0,1.5,0c0.6,0,1.2,0,1.8,0c0.6,0,1.2,0,1.9,0
	s1.2,0,1.8,0c0.6,0,1.1,0.1,1.6,0.1c0.5,0.1,0.9,0.1,1.2,0.1c0.8,0.1,1.5,0.2,1.8,0.3c0.3,0.1,0.5,0.3,0.7,0.4
	c0.2,0.2,0.4,0.3,0.7,0.5c0.5,0.4,0.8,0.7,1,1c0.2,0.3,0.3,0.6,0.3,1c0,0.5,0,0.8,0,0.9c-0.1,0.2-0.1,0.3-0.3,0.5
	c-0.1,0.2-0.2,0.3-0.3,0.5c-0.1,0.2-0.2,0.4-0.3,0.6c-0.1,0.2-0.2,0.4-0.4,0.6c-0.2,0.2-0.3,0.4-0.6,0.5c-0.2,0.2-0.4,0.3-0.6,0.5
	c-0.4,0.4-1.1,0.7-2.1,0.9c-0.5,0.1-1,0.2-1.6,0.2l-1.7,0.1c-0.6,0-1.1,0.1-1.6,0.1c-0.5,0.1-1,0.1-1.5,0.1c-0.5,0-0.8,0-1.2-0.1
	c-0.3,0-0.6-0.1-0.7-0.1s-0.4,0.1-0.7,0.2c-0.3,0.1-0.5,0.2-0.5,0.2c-0.1,0.1-0.1,0.1-0.1,0.2c0,0.1,0,0.1-0.1,0.2
	c0,0-0.1,0.1-0.2,0.1c0,0.1,0,0.3,0,0.4c0,0.1,0,0.3,0.1,0.4c0,0.2,0,0.3,0,0.5c0,0.2,0,0.3,0,0.5s0,0.3,0,0.5c0,0.2,0,0.3,0,0.5
	v0.9l1,0c0.3,0,0.6,0.1,1,0.1c0.4,0.1,0.8,0.1,1.3,0.1c0.5,0,1,0.1,1.5,0.1c0.5,0,1,0,1.5,0.1c0.5,0.1,1,0.1,1.5,0.2
	c0.5,0.1,0.9,0.1,1.4,0.2c1,0.1,1.9,0.4,2.6,0.7c0.7,0.3,1.3,0.7,1.9,1.2c0.6,0.6,0.9,1.2,1.2,1.8c0.2,0.7,0.4,1.5,0.4,2.4
	c0,1.1-0.3,2-0.8,2.8c-0.4,0.6-1.2,1.2-2.2,1.7c-1,0.6-2,1-2.8,1.2c-0.5,0.1-1,0.2-1.5,0.2c-0.5,0-1,0.1-1.4,0.1c-0.2,0-0.4,0-0.5,0
	c-0.2,0-0.4,0-0.5,0c-0.5,0-0.8-0.1-1-0.1c-0.2,0-0.4,0-0.5,0s-0.4,0-0.5-0.1c-0.2,0-0.4,0-0.5-0.1c-0.2,0-0.4-0.1-0.5-0.1
	c-0.1,0-0.2,0.1-0.2,0.1c-0.1,0.1-0.2,0.1-0.2,0.1c-0.1,0-0.2,0.1-0.3,0.1c-0.1,0-0.2,0-0.3,0.1c-0.1,0-0.2,0.1-0.2,0.1
	c-0.1,0.1-0.1,0.1-0.2,0.1c-0.1,0-0.2,0-0.3,0.1c-0.1,0-0.2,0-0.2,0.1c-0.1,0-0.3,0-0.4,0c-0.1,0-0.3,0-0.4,0c-0.1,0-0.3,0-0.4-0.1
	c-0.1,0-0.3-0.1-0.4-0.1c-0.1,0-0.3,0-0.4,0c-0.1,0-0.3,0-0.4,0c-0.1,0-0.3,0-0.4,0c-0.1,0-0.2,0-0.4,0c0,0-0.1-0.1-0.1-0.1
	c-0.1,0-0.1,0-0.1-0.1c0,0-0.1-0.1-0.1-0.2c0-0.1,0-0.1-0.1-0.1c-0.1,0-0.1-0.1-0.2-0.1c-0.1,0-0.1,0-0.1-0.1c0,0-0.1-0.1-0.1-0.1
	c0,0-0.1-0.1-0.1-0.1c0-0.1,0-0.3-0.1-0.4s-0.1-0.3-0.1-0.4c0-0.1,0-0.3,0-0.4c0-0.1,0-0.3,0-0.4c0-0.1,0-0.3,0-0.4
	c0-0.1,0-0.3,0-0.4c0-0.1,0-0.3,0-0.4c0-0.1,0-0.3,0-0.4c0-0.1,0-0.3,0-0.4c0-0.1,0-0.3,0-0.4c0-0.1,0.1-0.3,0.1-0.4
	s0.1-0.3,0.1-0.4c0-0.1,0-0.3,0-0.4c0-0.1,0-0.3,0.1-0.4c0-0.1,0.1-0.3,0.1-0.4c0.1-0.1,0.1-0.3,0.1-0.4c0-0.7,0-1.5,0-2.2
	c0-0.8,0-1.5,0-2.3c0-0.7,0-1.5,0.1-2.2c0-0.7,0.1-1.5,0.1-2.2c0-0.7,0-1.5,0-2.2c0-0.7,0-1.5,0-2.3c0-0.7,0-1.5,0.1-2.2
	C183.6,8,183.6,7.2,183.6,6.5 M186.4,7.4c0,0.2-0.1,0.4-0.2,0.8c-0.1,0.5-0.2,0.8-0.2,1c0,0.4-0.1,0.7,0,0.9v0.4c0,0.1,0,0.2,0,0.4
	c0,0.2,0,0.4,0.1,0.7c0,0.2,0.1,0.4,0.2,0.5c0.1,0.1,0.2,0.2,0.5,0.3c0.4,0.1,0.6,0.2,0.8,0.2c0.2,0,0.5,0.1,1,0.1
	c0.4,0.1,0.8,0.1,0.9,0.1c0.1,0,0.2,0,0.3,0c0.1,0,0.2,0,0.2,0c0.2,0,0.6,0,1.2-0.1c0.6-0.1,1.4-0.2,2.2-0.3l1.2-0.2
	c0,0,0.8-0.1,1.1-0.2c0.7-0.2,1.1-0.4,1.3-0.6c0.1-0.1,0.2-0.2,0.3-0.3c0.1-0.1,0.2-0.2,0.3-0.3c0.1-0.1,0.1-0.2,0.2-0.2
	c0.1-0.1,0.1-0.2,0.2-0.2c0.2-0.3,0.3-0.4,0.3-0.5c0-0.1,0-0.3,0-0.6c0-0.3-0.1-0.5-0.3-0.7c-0.1-0.1-0.3-0.3-0.7-0.6
	c-0.4-0.3-0.7-0.4-0.9-0.5c-0.3-0.1-0.7-0.1-1.1-0.1c-0.2,0-0.4,0-0.6,0c-0.2,0-0.4,0-0.6-0.1c-0.2,0-0.4,0-0.6-0.1l-0.6-0.1
	c-0.5-0.1-0.9-0.1-1.2-0.1c-0.4,0-0.8,0-1.2,0c-0.2,0-0.4,0-0.6,0c-0.2,0-0.4,0-0.6,0c-0.2,0-0.4,0.1-0.7,0.1
	c-0.2,0-0.4,0.1-0.6,0.1c-0.2,0-0.4,0-0.6,0c-0.2,0-0.3,0-0.4,0l-0.4,0C186.5,7.2,186.4,7.3,186.4,7.4 M186.4,24.7
	c0,0.2,0,0.4,0,0.6c0,0.2,0,0.4,0,0.7c0,0.7,0.1,1.1,0.1,1.4c0.1,0.4,0.3,0.7,0.5,0.8l0.4,0.2c0.1,0.1,0.3,0.2,0.5,0.2
	c0.3,0.1,0.6,0.2,1.2,0.4c0.6,0.1,1,0.2,1.3,0.3c0.3,0,0.8,0,1.3,0c0.2,0,0.4,0,0.7,0c0.2,0,0.5,0,0.8-0.1c0.6-0.1,1.2-0.2,1.8-0.3
	c0.7-0.1,1.3-0.3,1.6-0.4c0.5-0.2,0.9-0.4,1.2-0.7c0.1-0.1,0.3-0.2,0.4-0.4c0.1-0.1,0.3-0.2,0.4-0.4c0.2-0.1,0.4-0.4,0.6-0.7
	c0.2-0.3,0.4-0.5,0.4-0.7c0.1-0.2,0.1-0.5,0-0.8c0-0.3-0.2-0.6-0.5-1c-0.2-0.3-0.6-0.6-1-1.1c-0.5-0.4-0.9-0.7-1.2-0.9
	c-0.4-0.2-0.7-0.4-1-0.4c-0.2,0-0.4-0.1-0.8-0.2c-0.1,0-0.2-0.1-0.4-0.1c-0.1,0-0.2-0.1-0.4-0.1c-0.4-0.2-0.7-0.3-0.8-0.3
	c-0.2,0-0.6-0.1-1-0.1c-0.2,0-0.4,0-0.6,0h-0.7c-0.8,0-1.3,0.1-1.7,0.1c-0.7,0.1-1.2,0.1-1.5,0.2c-0.4,0.1-0.7,0.2-1,0.4
	c-0.3,0.3-0.4,0.5-0.5,0.8c-0.1,0.2-0.1,0.3-0.1,0.5c0,0.2,0,0.3,0,0.5c0,0.2,0,0.3,0,0.5c0,0.1,0,0.3,0,0.4s0,0.2,0,0.4
	C186.4,24.4,186.4,24.6,186.4,24.7 M207.1,5.6C207.1,5.6,207.1,5.6,207.1,5.6c0,0.1,0.1,0.2,0.1,0.2c0,0,0.1,0.1,0.2,0.1
	s0.1,0,0.2,0.1c0,0,0.1,0.1,0.2,0.3c0.1,0.1,0.1,0.2,0.1,0.5c0,0.1,0,0.3,0,0.5c0,0.2,0,0.4,0,0.6c0,0.2,0,0.5,0,0.8
	c0,0.3,0,0.5,0,0.8c0,0.3,0,0.6,0,0.9c0,0.3,0,0.6,0,1c0,0.4,0,0.8,0,1.2c0,0.4,0,0.8,0,1.2c0,0.4,0,0.8,0,1.2c0,0.4,0,0.7,0,1.1
	c0,0.3,0,0.7,0,1c0,0.3,0,0.6,0,0.8c0,0.2,0,0.4-0.1,0.6s-0.1,0.3-0.1,0.4c0,0.1,0,0.2,0.1,0.3s0.1,0.3,0.1,0.5c0,0.2,0,0.4-0.1,0.7
	c0,0.2-0.1,0.5,0,0.8c0,0.3,0,0.6,0.1,0.9c0.1,0.3,0.1,0.6,0.1,0.9c0,0.3,0,0.6,0,0.9c0,0.3,0,0.6,0,0.9c0,0.6,0.1,1,0.1,1.2
	c0,0.2,0,0.4,0,0.6c0,0.2,0,0.3,0,0.5c0,0.1,0,0.3,0.1,0.4s0.1,0.2,0.1,0.3c0.1,0.4,0.1,0.5,0,0.4c-0.1-0.1,0.1-0.1,0.4,0.1
	c0.1,0,0.1,0.1,0.2,0.1s0.2,0.1,0.3,0.1c0.1,0,0.3,0,0.4,0c0.2,0,0.3,0,0.5,0c0.1,0,0.3,0.1,0.5,0.1c0.2,0,0.3,0.1,0.5,0.1
	c0.2,0,0.4,0,0.6,0s0.4,0,0.6,0c0.6,0.1,0.9,0.1,1.2,0.1c0.2,0,0.4,0,0.5,0c0.2,0,0.3,0,0.5,0c0.1,0,0.3,0,0.4,0.1
	c0.1,0,0.2,0.1,0.3,0.1c0.1,0,0.1,0,0.2-0.1c0.1,0,0.2-0.1,0.3-0.1c0.1,0,0.2,0,0.2,0c0.1,0,0.2,0,0.3,0c0.1,0,0.2,0,0.4-0.1
	c0.1,0,0.2-0.1,0.4-0.1c0.1,0,0.2,0,0.4,0c0.1,0,0.3,0,0.4,0c0.1,0,0.2,0,0.4-0.1c0.1,0,0.2-0.1,0.3-0.1c0.1,0,0.2,0,0.4,0
	c0.1,0,0.2,0,0.4,0c0.1,0,0.2,0,0.4,0c0.1,0,0.2,0,0.3,0c0.1,0,0.2,0,0.3,0s0.2,0,0.3,0c0.1,0,0.2,0,0.3-0.1c0.1,0,0.2-0.1,0.3-0.1
	c0.1,0,0.2,0,0.3,0c0.1,0,0.2,0,0.3,0c0.1,0,0.1,0,0.2-0.1c0.1,0,0.2-0.1,0.2-0.1c0.1,0,0.1,0,0.2,0.1c0.1,0,0.1,0.1,0.1,0.1
	c0.4,0,0.6,0.1,0.7,0.2c0.1,0.1,0.1,0.2,0,0.3c0,0.1,0,0.2,0,0.4c0,0.1,0,0.2,0.1,0.3c0,0.1,0.1,0.2,0.1,0.3c0,0.1-0.1,0.2-0.1,0.3
	v0.1c0,0-0.1,0.1-0.1,0.1c0,0-0.1,0.1-0.1,0.1c0,0.1,0,0.1,0,0.2s0,0.1,0,0.2c0,0.1-0.1,0.1-0.2,0.2s-0.1,0.1-0.2,0.1
	c-0.1,0.1-0.2,0.2-0.2,0.2c-0.1,0-0.2,0-0.3,0c-0.1,0-0.2,0-0.3,0c-0.1,0-0.2,0-0.4,0s-0.3,0-0.4,0s-0.3,0-0.5,0s-0.3,0-0.5-0.1
	c-0.7,0-1.2,0-1.5,0c-0.2,0-0.5,0-0.7-0.1c-0.2,0-0.4-0.1-0.7-0.1c-0.2,0-0.4,0-0.6,0c-0.2,0-0.3,0-0.4,0c-0.1,0-0.3,0-0.4,0l0,0
	c0,0-0.1,0-0.1,0c0,0-0.1,0-0.1,0c0,0-0.1,0-0.2,0c-0.1,0-0.2,0-0.3,0c-0.1,0-0.2,0-0.4-0.1c-0.1,0-0.3-0.1-0.5-0.1
	c-0.1,0-0.2,0-0.3,0s-0.2,0-0.3,0h-0.9c-0.2,0-0.4,0-0.6,0.1c-0.2,0-0.4,0.1-0.6,0.1c-0.2,0-0.4,0-0.6,0s-0.4,0-0.6,0
	c-0.3,0-0.5,0.1-0.8,0.1c-0.3,0-0.5,0.1-0.8,0.1c-0.3,0-0.5,0-0.8,0c-0.2,0-0.5,0-0.7,0c-0.2,0-0.4,0-0.6,0.1s-0.3,0-0.5,0
	c-0.1,0-0.3,0-0.6-0.1c-0.2-0.1-0.4-0.1-0.4-0.2c0,0,0-0.1-0.2-0.4c-0.2-0.2-0.3-0.3-0.2-0.2c0,0,0-0.1-0.1-0.1c0-0.6,0-1.1,0.1-1.6
	c0-0.5,0-1,0.1-1.6c0-0.6,0.1-1.3,0.1-2c0-0.7,0-1.4,0-2c0-0.7,0-1.3,0-1.9c0-0.6,0-1.1,0-1.5c0-0.4,0-0.8,0-1c0-0.1,0-0.2,0-0.4
	c0-0.2,0-0.3,0-0.5c0-0.2,0-0.4,0-0.7c0-0.2,0-0.5,0-0.8c0-0.3,0-0.6,0-0.9c0-0.3,0-0.6,0-1c0-0.3,0-0.6,0-1c0-0.3,0-0.7,0-1v-2.2
	c0-0.4,0-0.7,0-1c0-0.3,0-0.6,0-0.9c0-0.3,0-0.6,0-0.8c0-0.2,0-0.5,0-0.7c0-0.3,0.1-0.6,0.1-0.7c0.1-0.2,0.2-0.3,0.3-0.4
	c0.1,0,0.2-0.1,0.3,0c0.1,0,0.2,0,0.3,0c0.1,0,0.2,0,0.3-0.1c0.1,0,0.2-0.1,0.2-0.1C206.9,5.5,206.9,5.5,207.1,5.6
	C207,5.6,207.1,5.6,207.1,5.6"/>
<g>
	<g>
		<path class="st0" d="M56.5,53.2c-0.2,0.4-0.4,0.7-0.8,0.9s-0.7,0.4-1.1,0.6c-0.4,0.1-0.9,0.2-1.3,0.2h-2.2V58h-1v-8.9h3.3
			c0.5,0,1,0.1,1.4,0.2c0.4,0.1,0.8,0.3,1.1,0.6s0.5,0.5,0.7,0.9c0.2,0.4,0.2,0.7,0.2,1.2C56.8,52.5,56.7,52.9,56.5,53.2z
			 M55.1,50.6c-0.4-0.3-1-0.5-1.7-0.5h-2.3V54h2.2c0.4,0,0.7,0,1-0.1s0.6-0.2,0.8-0.4c0.2-0.2,0.4-0.4,0.5-0.6
			c0.1-0.2,0.2-0.5,0.2-0.8C55.8,51.4,55.6,50.9,55.1,50.6z"/>
		<path class="st0" d="M67.6,50.1h-5.4v3H67V54h-4.9v3.1h5.5V58h-6.5v-8.9h6.4V50.1z"/>
		<path class="st0" d="M78.3,58l-2.6-3.5h-2.5V58h-1v-8.9H76c0.5,0,0.9,0.1,1.3,0.2s0.7,0.3,1,0.5c0.3,0.2,0.5,0.5,0.6,0.8
			c0.2,0.3,0.2,0.7,0.2,1.1c0,0.4-0.1,0.7-0.2,1c-0.1,0.3-0.3,0.5-0.5,0.8c-0.2,0.2-0.5,0.4-0.8,0.5c-0.3,0.1-0.6,0.2-1,0.3l2.7,3.6
			H78.3z M77.6,50.5c-0.4-0.3-1-0.5-1.7-0.5h-2.8v3.6h2.7c0.3,0,0.6,0,0.9-0.1c0.3-0.1,0.5-0.2,0.7-0.4c0.2-0.2,0.4-0.4,0.5-0.6
			c0.1-0.2,0.2-0.5,0.2-0.8C78.2,51.3,78,50.8,77.6,50.5z"/>
		<path class="st0" d="M90.3,50.1h-5.4v3.2h4.8v0.9h-4.8V58h-1v-8.9h6.4V50.1z"/>
		<path class="st0" d="M102.4,55.3c-0.2,0.6-0.5,1-0.9,1.5c-0.4,0.4-0.9,0.8-1.4,1c-0.6,0.2-1.2,0.4-1.9,0.4c-0.7,0-1.3-0.1-1.9-0.4
			s-1-0.6-1.4-1c-0.4-0.4-0.7-0.9-0.9-1.5c-0.2-0.6-0.3-1.1-0.3-1.8c0-0.6,0.1-1.2,0.3-1.8c0.2-0.6,0.5-1,0.9-1.5
			c0.4-0.4,0.9-0.8,1.4-1c0.6-0.2,1.2-0.4,1.9-0.4s1.3,0.1,1.9,0.4s1,0.6,1.4,1c0.4,0.4,0.7,0.9,0.9,1.5c0.2,0.6,0.3,1.1,0.3,1.8
			C102.8,54.2,102.7,54.8,102.4,55.3z M101.5,52.2c-0.2-0.5-0.4-0.8-0.7-1.2s-0.7-0.6-1.1-0.8s-0.9-0.3-1.4-0.3
			c-0.5,0-1,0.1-1.4,0.3S96,50.7,95.7,51s-0.5,0.7-0.7,1.2c-0.2,0.4-0.3,0.9-0.3,1.4c0,0.5,0.1,1,0.3,1.4c0.2,0.4,0.4,0.8,0.7,1.2
			s0.7,0.6,1.1,0.8s0.9,0.3,1.4,0.3s1-0.1,1.4-0.3c0.4-0.2,0.8-0.5,1.1-0.8s0.5-0.7,0.7-1.2c0.2-0.4,0.3-0.9,0.3-1.4
			C101.7,53.1,101.6,52.6,101.5,52.2z"/>
		<path class="st0" d="M112.5,58l-2.6-3.5h-2.5V58h-1v-8.9h3.8c0.5,0,0.9,0.1,1.3,0.2s0.7,0.3,1,0.5c0.3,0.2,0.5,0.5,0.6,0.8
			c0.2,0.3,0.2,0.7,0.2,1.1c0,0.4-0.1,0.7-0.2,1c-0.1,0.3-0.3,0.5-0.5,0.8c-0.2,0.2-0.5,0.4-0.8,0.5c-0.3,0.1-0.6,0.2-1,0.3l2.7,3.6
			H112.5z M111.8,50.5c-0.4-0.3-1-0.5-1.7-0.5h-2.8v3.6h2.7c0.3,0,0.6,0,0.9-0.1c0.3-0.1,0.5-0.2,0.7-0.4c0.2-0.2,0.4-0.4,0.5-0.6
			c0.1-0.2,0.2-0.5,0.2-0.8C112.4,51.3,112.2,50.8,111.8,50.5z"/>
		<path class="st0" d="M122.1,55.6L122.1,55.6l-3.3-4.8V58h-1v-8.9h1l3.2,4.9l3.2-4.9h1V58h-1v-7.2L122.1,55.6z"/>
		<path class="st0" d="M132.5,49.1V58h-1v-8.9H132.5z"/>
		<path class="st0" d="M144.2,49.1h1V58h-0.8l-5.8-7.3V58h-1v-8.9h0.9l5.6,7.1V49.1z"/>
		<path class="st0" d="M156.4,57.8c-0.6,0.3-1.3,0.4-2,0.4c-0.7,0-1.3-0.1-1.9-0.4c-0.6-0.2-1-0.6-1.4-1s-0.7-0.9-0.9-1.5
			s-0.3-1.2-0.3-1.8c0-0.6,0.1-1.2,0.3-1.8c0.2-0.6,0.5-1.1,0.9-1.5c0.4-0.4,0.9-0.8,1.4-1c0.5-0.2,1.2-0.4,1.8-0.4
			c0.4,0,0.7,0,1,0.1c0.3,0.1,0.6,0.1,0.9,0.2c0.3,0.1,0.5,0.2,0.8,0.4c0.2,0.1,0.5,0.3,0.7,0.5l-0.6,0.8c-0.2-0.2-0.3-0.3-0.5-0.4
			s-0.4-0.2-0.6-0.3s-0.5-0.2-0.7-0.2c-0.3-0.1-0.5-0.1-0.9-0.1c-0.5,0-0.9,0.1-1.4,0.3s-0.8,0.5-1.1,0.8s-0.5,0.7-0.7,1.2
			s-0.3,0.9-0.3,1.4c0,0.5,0.1,1,0.2,1.5c0.2,0.5,0.4,0.8,0.7,1.2c0.3,0.3,0.7,0.6,1.1,0.8c0.4,0.2,0.9,0.3,1.5,0.3
			c0.5,0,1-0.1,1.4-0.3c0.5-0.2,0.8-0.4,1.1-0.6v-2.2h-2.7v-0.9h3.7v3.5C157.5,57.2,157,57.5,156.4,57.8z"/>
		<path class="st0" d="M177.3,58h-1.1l-1-2.4h-4.9l-1.1,2.4h-1l4.1-9h0.9L177.3,58z M172.8,50.3l-2,4.5h4.1L172.8,50.3z"/>
		<path class="st0" d="M187.7,58l-2.6-3.5h-2.5V58h-1v-8.9h3.8c0.5,0,0.9,0.1,1.3,0.2c0.4,0.1,0.7,0.3,1,0.5
			c0.3,0.2,0.5,0.5,0.6,0.8c0.2,0.3,0.2,0.7,0.2,1.1c0,0.4-0.1,0.7-0.2,1s-0.3,0.5-0.5,0.8c-0.2,0.2-0.5,0.4-0.8,0.5
			c-0.3,0.1-0.6,0.2-1,0.3l2.7,3.6H187.7z M187,50.5c-0.4-0.3-1-0.5-1.7-0.5h-2.8v3.6h2.7c0.3,0,0.6,0,0.9-0.1
			c0.3-0.1,0.5-0.2,0.7-0.4c0.2-0.2,0.4-0.4,0.5-0.6c0.1-0.2,0.2-0.5,0.2-0.8C187.6,51.3,187.4,50.8,187,50.5z"/>
		<path class="st0" d="M196.6,58h-1v-8h-3v-0.9h7v0.9h-3V58z"/>
		<path class="st0" d="M204.6,51.9c0.1,0.2,0.2,0.3,0.4,0.5c0.2,0.1,0.4,0.3,0.7,0.4c0.3,0.1,0.7,0.2,1.2,0.3c1,0.2,1.7,0.5,2.2,0.9
			c0.5,0.4,0.7,0.9,0.7,1.6c0,0.4-0.1,0.7-0.2,1c-0.2,0.3-0.4,0.6-0.6,0.8c-0.3,0.2-0.6,0.4-1,0.5c-0.4,0.1-0.8,0.2-1.2,0.2
			c-0.7,0-1.4-0.1-2-0.3c-0.6-0.2-1.2-0.6-1.7-1.1l0.6-0.7c0.5,0.4,0.9,0.7,1.4,0.9c0.5,0.2,1,0.3,1.6,0.3c0.6,0,1.1-0.1,1.4-0.4
			c0.4-0.3,0.5-0.7,0.5-1.1c0-0.2,0-0.4-0.1-0.6c-0.1-0.2-0.2-0.3-0.4-0.5c-0.2-0.1-0.4-0.3-0.7-0.4s-0.7-0.2-1.2-0.3
			c-0.5-0.1-1-0.2-1.3-0.4s-0.7-0.3-0.9-0.5s-0.4-0.4-0.5-0.7s-0.2-0.6-0.2-1c0-0.4,0.1-0.7,0.2-1s0.3-0.6,0.6-0.8
			c0.3-0.2,0.6-0.4,0.9-0.5c0.4-0.1,0.7-0.2,1.2-0.2c0.7,0,1.2,0.1,1.7,0.3c0.5,0.2,1,0.5,1.4,0.8l-0.6,0.8
			c-0.4-0.3-0.8-0.6-1.3-0.7c-0.4-0.2-0.9-0.2-1.3-0.2c-0.3,0-0.5,0-0.8,0.1c-0.2,0.1-0.4,0.2-0.6,0.3c-0.2,0.1-0.3,0.3-0.4,0.5
			c-0.1,0.2-0.1,0.4-0.1,0.6C204.5,51.6,204.6,51.8,204.6,51.9z"/>
	</g>
</g>
</svg>
